<svg width="24" height="24" viewBox="0 0 24 24" fill="none" xmlns="http://www.w3.org/2000/svg">
<g clip-path="url(#clip0_1416_119226)">
<path d="M5.94531 2.34302V5.90622H2.38238L5.94531 2.34302Z" fill="black"/>
<path d="M6.53125 7.07812C6.85484 7.07812 7.11719 6.81578 7.11719 6.49219V2H15.5156C16.4849 2 17.2734 2.78855 17.2734 3.75781V10.3082C17.0804 10.2907 16.885 10.2812 16.6875 10.2812C14.6903 10.2812 12.9025 11.1944 11.7193 12.625H5.35938C5.03578 12.625 4.77344 12.8873 4.77344 13.2109C4.77344 13.5345 5.03578 13.7969 5.35938 13.7969H10.9473C10.5811 14.5116 10.3449 15.3033 10.2691 16.1406H5.35938C5.03578 16.1406 4.77344 16.403 4.77344 16.7266C4.77344 17.0502 5.03578 17.3125 5.35938 17.3125H10.2691C10.4443 19.2476 11.4782 20.9385 12.986 22H3.79688C2.82762 22 2.03906 21.2114 2.03906 20.2422V7.07812H6.53125ZM5.35938 10.2812H13.9531C14.2767 10.2812 14.5391 10.0189 14.5391 9.69531C14.5391 9.37172 14.2767 9.10938 13.9531 9.10938H5.35938C5.03578 9.10938 4.77344 9.37172 4.77344 9.69531C4.77344 10.0189 5.03578 10.2812 5.35938 10.2812Z" fill="black"/>
<path d="M16.6875 11.4531C19.5953 11.4531 21.9609 13.8188 21.9609 16.7266C21.9609 19.6343 19.5953 22 16.6875 22C13.7797 22 11.4141 19.6343 11.4141 16.7266C11.4141 13.8188 13.7797 11.4531 16.6875 11.4531ZM15.125 17.3125H16.6875C17.0111 17.3125 17.2734 17.0502 17.2734 16.7266V14.3828C17.2734 14.0592 17.0111 13.7969 16.6875 13.7969C16.3639 13.7969 16.1016 14.0592 16.1016 14.3828V16.1406H15.125C14.8014 16.1406 14.5391 16.403 14.5391 16.7266C14.5391 17.0502 14.8014 17.3125 15.125 17.3125Z" fill="black"/>
</g>
<defs>
<clipPath id="clip0_1416_119226">
<rect width="20" height="20" fill="white" transform="matrix(-1 0 0 1 22 2)"/>
</clipPath>
</defs>
</svg>
